<?xml version="1.0" standalone="no"?>
<!DOCTYPE svg PUBLIC "-//W3C//DTD SVG 20010904//EN"
 "http://www.w3.org/TR/2001/REC-SVG-20010904/DTD/svg10.dtd">
<svg version="1.0" xmlns="http://www.w3.org/2000/svg"
 width="1024.000000pt" height="1024.000000pt" viewBox="0 0 1024.000000 1024.000000"
 preserveAspectRatio="xMidYMid meet">
<metadata>
Created by potrace 1.11, written by Peter Selinger 2001-2013
</metadata>
<g transform="translate(0.000000,1024.000000) scale(0.100000,-0.100000)"
fill="#000000" stroke="none">
<path d="M4759 9549 c-63 -5 -193 -20 -287 -33 -1436 -209 -2683 -1114 -3332
-2418 -240 -483 -377 -958 -445 -1543 -13 -112 -17 -626 -6 -771 60 -827 365
-1640 864 -2310 709 -950 1747 -1571 2914 -1745 1010 -149 2054 57 2923 579
1241 744 2037 2025 2154 3462 36 445 -5 971 -109 1395 -341 1387 -1314 2522
-2627 3064 -419 173 -851 277 -1328 320 -123 11 -572 11 -721 0z m2802 -2569
c112 -35 219 -137 256 -245 24 -67 23 -194 0 -261 -10 -29 -32 -72 -50 -96
-18 -25 -430 -438 -917 -918 -487 -481 -1202 -1187 -1590 -1570 -764 -754
-741 -735 -877 -760 -47 -8 -79 -8 -125 0 -138 25 -120 10 -792 679 -340 339
-638 642 -661 674 -59 79 -80 142 -80 247 0 74 4 93 32 152 44 93 100 151 191
196 72 35 81 37 171 37 84 0 104 -4 161 -29 60 -27 102 -66 552 -515 l488
-485 52 51 c29 28 672 661 1428 1408 756 746 1395 1371 1419 1387 95 66 226
85 342 48z"/>
</g>
</svg>
